<?xml version="1.0" encoding="UTF-8" standalone="no"?>
<svg
   viewBox="0 0 150 150"
   version="1.1"
   id="svg33"
   sodipodi:docname="vectorized_019e3aeb-a3c0-7d79-a9f4-30087b769f52.svg"
   inkscape:version="1.4.4 (dcaf3e7d9e, 2026-05-05)"
   xmlns:inkscape="http://www.inkscape.org/namespaces/inkscape"
   xmlns:sodipodi="http://sodipodi.sourceforge.net/DTD/sodipodi-0.dtd"
   xmlns="http://www.w3.org/2000/svg"
   xmlns:svg="http://www.w3.org/2000/svg">
  <defs
     id="defs33" />
  <sodipodi:namedview
     id="namedview33"
     pagecolor="#ffffff"
     bordercolor="#000000"
     borderopacity="0.25"
     inkscape:showpageshadow="2"
     inkscape:pageopacity="0.0"
     inkscape:pagecheckerboard="0"
     inkscape:deskcolor="#d1d1d1"
     inkscape:zoom="4.4924851"
     inkscape:cx="115.52626"
     inkscape:cy="66.444294"
     inkscape:window-width="2048"
     inkscape:window-height="1204"
     inkscape:window-x="0"
     inkscape:window-y="0"
     inkscape:window-maximized="1"
     inkscape:current-layer="svg33" />
  <!-- SVG created with Arrow, by QuiverAI (https://quiver.ai) -->
  <style
     type="text/css"
     id="style1">.cls-0 {fill:#21CB9C;}
.cls-1 {fill:#08B582;}
.cls-2 {fill:#ABDDBC;}
.cls-3 {fill:#E2E1D3;}
.cls-4 {fill:#FFF9EB;}
.cls-5 {fill:#C1E8CA;}
.cls-6 {fill:#08AE61;}
.cls-7 {fill:#0B2120;}
.cls-8 {fill:#133636;}
.cls-9 {fill:#253C3B;}
.cls-10 {fill:#173637;}
.cls-11 {fill:#254242;}
.cls-12 {fill:#081918;}
.cls-13 {fill:#0B2725;}
.cls-14 {fill:#081211;}
.cls-15 {fill:#092120;}
.cls-16 {fill:#0B2F2E;}
.cls-17 {fill:#23CA9B;}
.cls-18 {fill:#08AF61;}</style>
  <path
     class="cls-0"
     d="m125.1 91.9c2.5-5.2 4.9-12.9 4.7-22.5-0.4-14.7-7.3-34.4-25.5-45.1-1.1-1.3-0.9-2.3 0.3-4.8 1.8-4.1 4.8-11.9 2.1-17.7-0.2-0.6-0.9-0.8-1.5-0.5-13.2 5.8-31.3 10.3-46.2 20.8-13.5 9.4-24.5 23-27 41.1l14.7 63.3c19.5 9.1 47.3 6.8 66.1-5.3 5.5-3.5 9.6-8.5 12.3-14.6v-14.7z"
     id="path1" />
  <path
     class="cls-1"
     d="m32.3 109.6c1.9 6.2 6.8 12.3 14.4 16.9l6.4-12-9.3-12.9-11.5 8z"
     id="path2" />
  <path
     class="cls-2"
     d="M 116.3,96.3 114.2,95 92.4636,148.9887 c 2.8,-0.3 7.0364,-1.8887 8.0364,-4.1887 l 16.6,-43.2 c 0.6,-1.8 0.5,-4.1 -0.8,-5.3 z"
     id="path3"
     sodipodi:nodetypes="cccccc" />
  <path
     class="cls-2"
     d="m91 149-41.9-9.8c-2.3-0.7-4.7-3.3-3.2-6l7.8-12.4 51.6 7.8-7.5 16.6c-1.2 2.6-3.8 4.3-6.8 3.8z"
     id="path4" />
  <path
     class="cls-3"
     d="M 114.8,95.7 78,91 104.33261,109.71464 115.9,107.4 l 1.2,-6 c 0.7,-2.2 0,-4.7 -2.3,-5.7 z"
     id="path5"
     sodipodi:nodetypes="cccccc" />
  <path
     class="cls-3"
     d="m 91.236824,140.9113 2.470291,1.67824 c 0.3,0.8 3.892885,1.94435 4.092885,1.24435 l 6.31297,-13.20334 -2.36695,-2.53139 z"
     id="path7"
     sodipodi:nodetypes="cccccc" />
  <path
     class="cls-4"
     d="m73.2 85.9c-2.8-0.3-4.9 1-6.3 3.4l-15.4 33.8c-1.2 2.6-5.3 4-5.8 5.4-1.3 2.8-0.4 6.6 3.3 7.4l39.7 8.8c3.1 0.7 6-1 7.2-3.7l18.7-41.2c1.4-3.2 0.7-6.8-3.4-7.3l-38-6.6z"
     id="path6" />
  <path
     class="cls-5"
     d="m 93.6,109.6 -26,-6.1 c -0.9,-0.2 -0.354812,-2.15648 0.745188,-2.05648 l 25.588703,6.03556 C 95.433891,107.67908 95,109.9 93.6,109.6 Z"
     id="path8"
     sodipodi:nodetypes="ccccc" />
  <path
     class="cls-5"
     d="m 93.6,120.7 -30.220921,-7.12427 c -0.7,-0.2 -0.9,-1.42259 0.2,-1.62259 L 93.9,119.3 c 0.7,0.3 0.6,1.5 -0.3,1.4 z"
     id="path9"
     sodipodi:nodetypes="ccccc" />
  <path
     class="cls-5"
     d="m 89.61297,133.16778 -33.1,-7.3 c -0.8,-0.3 -0.5,-1.6 0.4,-1.5 l 32.9,7.4 c 0.9,0.2 0.7,1.5 -0.2,1.4 z"
     id="path10" />
  <path
     class="cls-6"
     d="m74.1 125.2c-1.6 0-3.1-0.9-3.8-2.4l-3.8-7.4c-1-1.9-0.2-4.1 1.7-5s4.2-0.3 5 1.6l2.4 4.4 16.2-10.9c1.7-1.2 4.1-1.1 5.4 0.6 1.3 1.6 1.1 4.2-0.7 6.1l-19.6 12.2c-0.8 0.6-1.8 0.8-2.8 0.8z"
     id="path11" />
  <path
     class="cls-7"
     d="m 19.508642,65.7 27.247763,46.70663 10.723146,8.5691 2.233876,-0.38954 L 57.160681,106.35345 30.109008,59.4 c -1.325045,-1.9 -3.771284,-3.9 -7.746421,-1.4 -2.752019,1.8 -4.077064,4.4 -2.853945,7.7 z"
     id="path12"
     style="stroke-width:1.00959"
     sodipodi:nodetypes="cccccccc" />
  <path
     class="cls-8"
     d="m21.6 69.6-2.2-4c-0.7-2.3-0.5-5.2 3.3-7.6 3.2-1.9 6-1.4 7.6 1.7l2 3.5c-2 0.2-8.1 2.2-10.7 6.4z"
     id="path13" />
  <path
     class="cls-9"
     d="m23 72-1.2-2.4c2-3.5 7.4-6.1 10.5-6.4l1.6 2.9c-2.7-0.8-8.8 2.6-10.9 5.9z"
     id="path14" />
  <path
     class="cls-10"
     d="m 46.6,112.4 7.855648,6.82699 c 1,0.7 1.861716,0.94519 2.061716,0.64519 C 56.917364,119.37218 59.3,118 59.3,118 c 0.4,-0.4 0.4,-0.9 0.3,-1.2 l -2.5,-10.5 c -2,-0.3 -9.5,2.6 -10.5,6.1 z"
     id="path15"
     sodipodi:nodetypes="ccccccc" />
  <path
     class="cls-11"
     d="M 48.622594,114.16088 46.6,112.4 c 0.7,-2.7 6.6,-6.3 10.5,-6.1 l 0.6,2.8 c -3,0.1 -7.177406,2.46088 -9.077406,5.06088 z"
     id="path16"
     sodipodi:nodetypes="ccccc" />
  <path
     class="cls-8"
     d="m 56.1,119.9 2.350418,1.96088 c 0.9,1 2.155649,0.24958 1.855649,-0.85042 L 59.2,117.9 Z"
     id="path17"
     sodipodi:nodetypes="ccccc" />
  <path
     class="cls-12"
     d="m 55.70523,119.86695 0.555649,0.2 C 56.360879,119.36695 59.1,117.6 59.3,118.4 l 0.2,-0.7 c -0.3,-0.9 -4.09477,0.76695 -3.79477,2.16695 z"
     id="path18"
     sodipodi:nodetypes="ccccc" />
  <path
     class="cls-13"
     d="m66.2 54c-0.4-1.8-2.3-4-4.4-4-2.6 0-5 2.7-5 9 0.2 3.9 2 6.8 5.1 6.7 4.4-0.1 5.3-7.2 4.3-11.7z"
     id="path19" />
  <path
     class="cls-13"
     d="m89.7 58.4c0.9-3.4 2.6-5.2 4.9-5.1 2.5 0 4.8 2.6 4.4 8.3-0.5 4.8-2.4 7.3-5.2 7.3-3.4 0-5.3-4.3-4.1-10.5z"
     id="path20" />
  <path
     class="cls-14"
     d="m76.5 94.8c-3.3-0.2-3.6-4-0.4-4.4 4.5-0.3 5 4.2 0.4 4.4z"
     id="path21" />
  <path
     class="cls-15"
     d="m88.6 96.9c-3.2-0.2-4-4-0.6-4.5 4.6-0.2 5.1 4.3 0.6 4.5z"
     id="path22" />
  <path
     class="cls-14"
     d="m100.7 99.1c-3.3-0.5-3.8-4.3 0.1-4.6 4.4-0.1 4.6 4.8-0.1 4.6z"
     id="path23" />
  <path
     class="cls-8"
     d="m74.7 91.2c0-4.9 2.7-8.7 5.9-8.6 2.8 0 4.5 2.2 4.2 5.3l-3.7-1c-0.9-2-2.7 1.3-2.7 4.3 0 2.4-3.5 3.3-3.7 0z"
     id="path24" />
  <path
     class="cls-8"
     d="m86.8 93.8c-0.4-4.6 1.9-9.2 5.9-9.2 2.5 0 4.9 2 4.5 5.5l-3.7-0.7c-0.6-2-2.9 0.6-2.8 4.2-0.1 2.5-3.6 3.3-3.9 0.2z"
     id="path25" />
  <path
     class="cls-8"
     d="m98.9 95.6c-0.2-4.7 2.1-8.9 5.7-8.9 2.6-0.1 4.8 1.7 4.6 5.5l-3.8-0.8c-0.2-1.8-2.8 0.8-2.7 4.5-0.1 2.7-3.6 2.6-3.8-0.3z"
     id="path26" />
  <path
     class="cls-16"
     d="m74.8 91.9c0 2.1 3.8 2.6 3.8-0.3-0.1-1.9-3.9-1.7-3.8 0.3z"
     id="path27" />
  <path
     class="cls-16"
     d="m87 94.1c-0.1 2.2 3.6 2.2 3.6-0.3 0-2-3.5-1.6-3.6 0.3z"
     id="path28" />
  <path
     class="cls-16"
     d="m99 96.4c0 2.2 3.8 2.2 3.6-0.1 0-1.8-3.6-1.8-3.6 0.1z"
     id="path29" />
  <path
     class="cls-13"
     d="m77.3 78.3c-4.2-0.1-8.9-1.4-12.5-6.4-1.6-2.3 1.4-5.2 3.4-2.5 2.9 4 11 6.9 17 1.5 2.2-2 5 0.7 3.4 2.9-3.2 3.2-7.2 4.5-11.3 4.5z"
     id="path30" />
  <path
     class="cls-17"
     d="m125.1 91.9c4.8 5 8.9 12 8.8 22.4-0.5 12.5-7.8 21.6-18.7 21.6-9.8 0-15.1-6.3-15.1-14.5 0-6.4 5.9-13.6 15.8-13.9l1.2-5.9c0.6-1.7 0.6-4.1-2.1-5.9l10.1-3.8z"
     id="path31" />
  <path
     class="cls-17"
     d="m31.9 81.9c-7.5 0-15.6 5.7-15.6 15.6 0 8.3 6.1 17.4 16.8 17.4 6.3 0 14.8-5.2 14.8-16.5 0-9.8-7.3-16.5-16-16.5z"
     id="path32" />
  <path
     class="cls-18"
     d="m74.1 125.2c-1 0-2.6-0.4-3.8-2.3l4.1-6.2 17.4-11.2c1.8-1.2 4.1-1.1 5.4 0.5 1.4 1.5 1.1 4.4-0.9 6.2l-19.4 12.2c-1 0.6-1.8 0.8-2.8 0.8z"
     id="path33" />
</svg>
